<svg xmlns="http://www.w3.org/2000/svg" width="109" height="19" viewBox="0 0 109 19"><g><g><path fill="#fff" d="M.421.556h9.73v1.75H6.354v15.75H4.218V2.305H.421zm13.765 15.75h5.933v1.75h-8.07V.555h8.07v1.75h-5.933v5.75h5.22v1.75h-5.22zM29.136.555h2.137l-3.204 8.5 3.56 9h-2.136l-2.967-7.5-2.966 7.5h-2.136l3.56-9-3.204-8.5h2.136l2.61 7zm13.765 0v17.5h-2.136v-8h-4.983v8h-2.136V.555h2.136v7.75h4.983V.556zm7.95-.25c.807 0 1.523.142 2.148.426.625.283 1.16.766 1.602 1.45.443.683.78 1.604 1.009 2.762.229 1.158.344 2.612.344 4.362s-.115 3.204-.344 4.362c-.23 1.158-.566 2.08-1.009 2.763-.443.683-.977 1.166-1.602 1.45-.625.283-1.34.424-2.147.424-.807 0-1.523-.141-2.148-.425-.625-.283-1.16-.766-1.602-1.45-.443-.683-.78-1.604-1.009-2.762-.23-1.158-.344-2.612-.344-4.362s.115-3.204.344-4.362c.23-1.158.566-2.08 1.009-2.763.443-.683.977-1.166 1.602-1.45.625-.283 1.34-.425 2.148-.425zm0 16.5c.38 0 .752-.109 1.116-.325.364-.217.68-.609.95-1.175.268-.567.486-1.334.652-2.3.166-.967.249-2.2.249-3.7s-.083-2.733-.25-3.7c-.165-.966-.383-1.733-.652-2.3-.269-.566-.585-.958-.95-1.175a2.16 2.16 0 0 0-1.114-.325c-.38 0-.752.109-1.116.325-.364.217-.68.609-.95 1.175-.268.567-.486 1.334-.652 2.3-.166.967-.25 2.2-.25 3.7s.084 2.733.25 3.7c.166.966.384 1.733.653 2.3.269.566.585.958.95 1.175.363.216.735.324 1.115.324zm14.002-1l-3.44-10.75h-.12l-.711 13h-2.136l.949-17.5h2.61l3.869 12h.095l3.868-12h2.61l.95 17.5h-2.136l-.712-13h-.118l-3.442 10.75zm13.528-2.25l-1.068 4.5h-2.136L79.21.555h3.085l4.035 17.5h-2.136l-1.068-4.5zm2.42-10.5h-.095l-1.97 8.75h4.035zm11.463 8.125c.537 0 1-.071 1.388-.213.388-.141.708-.387.961-.737s.44-.825.558-1.425c.119-.6.178-1.35.178-2.25 0-.9-.06-1.65-.178-2.25-.119-.6-.305-1.075-.558-1.424a2.027 2.027 0 0 0-.961-.738c-.388-.141-.85-.213-1.388-.213h-1.661v9.25zm-1.662 6.874h-2.135V.806A10.73 10.73 0 0 1 90.282.42c.609-.075 1.27-.113 1.982-.113.949 0 1.756.105 2.42.313.665.209 1.203.554 1.614 1.038.411.483.712 1.124.902 1.924.19.8.285 1.792.285 2.975 0 1.217-.091 2.234-.273 3.05-.182.817-.46 1.47-.83 1.962a3.062 3.062 0 0 1-1.401 1.05c-.562.209-1.23.313-2.005.313-.364 0-.776-.025-1.234-.075-.46-.05-.84-.109-1.14-.175zM98.672.556h9.73v1.75h-3.798v15.75h-2.136V2.305h-3.797z"/></g></g></svg>